<mxfile host="app.diagrams.net" modified="2023-06-24T11:25:11.639Z" agent="Mozilla/5.0 (Windows NT 10.0; Win64; x64) AppleWebKit/537.36 (KHTML, like Gecko) Chrome/114.0.0.0 Safari/537.36" etag="IKZFxbA6V0Zx96VdGiCi" version="21.5.0" type="device">
  <diagram id="C5RBs43oDa-KdzZeNtuy" name="Page-1">
    <mxGraphModel dx="1221" dy="629" grid="1" gridSize="10" guides="1" tooltips="1" connect="1" arrows="1" fold="1" page="1" pageScale="1" pageWidth="827" pageHeight="1169" math="0" shadow="0">
      <root>
        <mxCell id="WIyWlLk6GJQsqaUBKTNV-0" />
        <mxCell id="WIyWlLk6GJQsqaUBKTNV-1" parent="WIyWlLk6GJQsqaUBKTNV-0" />
        <mxCell id="LwWZkDkLT1T3cjZPzuyB-2" value="" style="edgeStyle=orthogonalEdgeStyle;rounded=0;orthogonalLoop=1;jettySize=auto;html=1;" parent="WIyWlLk6GJQsqaUBKTNV-1" source="WIyWlLk6GJQsqaUBKTNV-3" target="LwWZkDkLT1T3cjZPzuyB-1" edge="1">
          <mxGeometry relative="1" as="geometry" />
        </mxCell>
        <mxCell id="WIyWlLk6GJQsqaUBKTNV-3" value="Menú&lt;br&gt;principal" style="rounded=1;whiteSpace=wrap;html=1;fontSize=12;glass=0;strokeWidth=1;shadow=0;" parent="WIyWlLk6GJQsqaUBKTNV-1" vertex="1">
          <mxGeometry x="362" y="290" width="104" height="50" as="geometry" />
        </mxCell>
        <mxCell id="LwWZkDkLT1T3cjZPzuyB-0" value="Apertura de programa" style="ellipse;whiteSpace=wrap;html=1;" parent="WIyWlLk6GJQsqaUBKTNV-1" vertex="1">
          <mxGeometry x="346" y="30" width="136" height="100" as="geometry" />
        </mxCell>
        <mxCell id="LwWZkDkLT1T3cjZPzuyB-1" value="¿Que desea?" style="rhombus;whiteSpace=wrap;html=1;" parent="WIyWlLk6GJQsqaUBKTNV-1" vertex="1">
          <mxGeometry x="357" y="380" width="114" height="100" as="geometry" />
        </mxCell>
        <mxCell id="LwWZkDkLT1T3cjZPzuyB-3" value="" style="endArrow=classic;html=1;rounded=0;exitX=0;exitY=1;exitDx=0;exitDy=0;" parent="WIyWlLk6GJQsqaUBKTNV-1" source="LwWZkDkLT1T3cjZPzuyB-1" edge="1">
          <mxGeometry width="50" height="50" relative="1" as="geometry">
            <mxPoint x="390" y="450" as="sourcePoint" />
            <mxPoint x="340" y="500" as="targetPoint" />
            <Array as="points" />
          </mxGeometry>
        </mxCell>
        <mxCell id="LwWZkDkLT1T3cjZPzuyB-4" value="1) Búsqueda de datos,generación" style="text;html=1;strokeColor=none;fillColor=none;align=center;verticalAlign=middle;whiteSpace=wrap;rounded=0;" parent="WIyWlLk6GJQsqaUBKTNV-1" vertex="1">
          <mxGeometry x="265" y="420" width="97" height="80" as="geometry" />
        </mxCell>
        <mxCell id="LwWZkDkLT1T3cjZPzuyB-5" value="" style="endArrow=classic;html=1;rounded=0;exitX=0.774;exitY=0.728;exitDx=0;exitDy=0;exitPerimeter=0;entryX=0.3;entryY=0.197;entryDx=0;entryDy=0;entryPerimeter=0;" parent="WIyWlLk6GJQsqaUBKTNV-1" source="LwWZkDkLT1T3cjZPzuyB-1" target="LwWZkDkLT1T3cjZPzuyB-17" edge="1">
          <mxGeometry width="50" height="50" relative="1" as="geometry">
            <mxPoint x="442" y="450" as="sourcePoint" />
            <mxPoint x="490" y="500" as="targetPoint" />
            <Array as="points" />
          </mxGeometry>
        </mxCell>
        <mxCell id="LwWZkDkLT1T3cjZPzuyB-6" value="2) Cálculos estadísticos" style="text;html=1;strokeColor=none;fillColor=none;align=center;verticalAlign=middle;whiteSpace=wrap;rounded=0;" parent="WIyWlLk6GJQsqaUBKTNV-1" vertex="1">
          <mxGeometry x="471" y="452.5" width="89" height="35" as="geometry" />
        </mxCell>
        <mxCell id="LwWZkDkLT1T3cjZPzuyB-7" value="" style="endArrow=classic;html=1;rounded=0;exitX=0;exitY=0.5;exitDx=0;exitDy=0;" parent="WIyWlLk6GJQsqaUBKTNV-1" source="LwWZkDkLT1T3cjZPzuyB-1" edge="1">
          <mxGeometry width="50" height="50" relative="1" as="geometry">
            <mxPoint x="341.25" y="420" as="sourcePoint" />
            <mxPoint x="190" y="540" as="targetPoint" />
            <Array as="points">
              <mxPoint x="190" y="430" />
            </Array>
          </mxGeometry>
        </mxCell>
        <mxCell id="LwWZkDkLT1T3cjZPzuyB-11" value="Final" style="rounded=1;whiteSpace=wrap;html=1;arcSize=50;" parent="WIyWlLk6GJQsqaUBKTNV-1" vertex="1">
          <mxGeometry x="150" y="540" width="80" height="40" as="geometry" />
        </mxCell>
        <mxCell id="LwWZkDkLT1T3cjZPzuyB-12" value="4) Salir" style="text;html=1;strokeColor=none;fillColor=none;align=center;verticalAlign=middle;whiteSpace=wrap;rounded=0;" parent="WIyWlLk6GJQsqaUBKTNV-1" vertex="1">
          <mxGeometry x="130" y="487.5" width="60" height="30" as="geometry" />
        </mxCell>
        <mxCell id="LwWZkDkLT1T3cjZPzuyB-15" value="Mostrar los datos pedidos" style="rounded=1;whiteSpace=wrap;html=1;" parent="WIyWlLk6GJQsqaUBKTNV-1" vertex="1">
          <mxGeometry x="249" y="500" width="100" height="40" as="geometry" />
        </mxCell>
        <mxCell id="LwWZkDkLT1T3cjZPzuyB-16" value="Fichero&amp;nbsp;&lt;br&gt;generacion_por_&lt;br&gt;tecnologias_21_22_&lt;br&gt;puntos_simplificado.csv" style="shape=document;whiteSpace=wrap;html=1;boundedLbl=1;" parent="WIyWlLk6GJQsqaUBKTNV-1" vertex="1">
          <mxGeometry x="511" y="165" width="129" height="110" as="geometry" />
        </mxCell>
        <mxCell id="LwWZkDkLT1T3cjZPzuyB-17" value="¿Qué cálculo desea?" style="rhombus;whiteSpace=wrap;html=1;" parent="WIyWlLk6GJQsqaUBKTNV-1" vertex="1">
          <mxGeometry x="460" y="487.5" width="139" height="102.5" as="geometry" />
        </mxCell>
        <mxCell id="LwWZkDkLT1T3cjZPzuyB-22" value="" style="endArrow=classic;html=1;rounded=0;exitX=0.5;exitY=1;exitDx=0;exitDy=0;startArrow=classic;startFill=1;" parent="WIyWlLk6GJQsqaUBKTNV-1" source="LwWZkDkLT1T3cjZPzuyB-15" edge="1">
          <mxGeometry width="50" height="50" relative="1" as="geometry">
            <mxPoint x="249" y="590" as="sourcePoint" />
            <mxPoint x="390" y="740" as="targetPoint" />
            <Array as="points">
              <mxPoint x="299" y="740" />
              <mxPoint x="350" y="740" />
            </Array>
          </mxGeometry>
        </mxCell>
        <mxCell id="LwWZkDkLT1T3cjZPzuyB-24" value="¿Desea continuar?" style="rhombus;whiteSpace=wrap;html=1;" parent="WIyWlLk6GJQsqaUBKTNV-1" vertex="1">
          <mxGeometry x="391" y="690" width="139" height="100" as="geometry" />
        </mxCell>
        <mxCell id="LwWZkDkLT1T3cjZPzuyB-26" value="" style="endArrow=classic;html=1;rounded=0;" parent="WIyWlLk6GJQsqaUBKTNV-1" edge="1">
          <mxGeometry width="50" height="50" relative="1" as="geometry">
            <mxPoint x="460" y="790" as="sourcePoint" />
            <mxPoint x="360" y="310" as="targetPoint" />
            <Array as="points">
              <mxPoint x="100" y="790" />
              <mxPoint x="100" y="310" />
            </Array>
          </mxGeometry>
        </mxCell>
        <mxCell id="LwWZkDkLT1T3cjZPzuyB-27" value="2) NO" style="text;html=1;strokeColor=none;fillColor=none;align=center;verticalAlign=middle;whiteSpace=wrap;rounded=0;" parent="WIyWlLk6GJQsqaUBKTNV-1" vertex="1">
          <mxGeometry x="430.5" y="790" width="60" height="30" as="geometry" />
        </mxCell>
        <mxCell id="LwWZkDkLT1T3cjZPzuyB-28" value="1) SI" style="text;html=1;strokeColor=none;fillColor=none;align=center;verticalAlign=middle;whiteSpace=wrap;rounded=0;" parent="WIyWlLk6GJQsqaUBKTNV-1" vertex="1">
          <mxGeometry x="430.5" y="660" width="60" height="30" as="geometry" />
        </mxCell>
        <mxCell id="LwWZkDkLT1T3cjZPzuyB-29" value="" style="endArrow=classic;html=1;rounded=0;" parent="WIyWlLk6GJQsqaUBKTNV-1" edge="1">
          <mxGeometry width="50" height="50" relative="1" as="geometry">
            <mxPoint x="471" y="430" as="sourcePoint" />
            <mxPoint x="560" y="430" as="targetPoint" />
          </mxGeometry>
        </mxCell>
        <mxCell id="LwWZkDkLT1T3cjZPzuyB-31" value="3) Ordenación datos" style="text;html=1;strokeColor=none;fillColor=none;align=center;verticalAlign=middle;whiteSpace=wrap;rounded=0;" parent="WIyWlLk6GJQsqaUBKTNV-1" vertex="1">
          <mxGeometry x="460" y="390" width="108" height="40" as="geometry" />
        </mxCell>
        <mxCell id="LwWZkDkLT1T3cjZPzuyB-32" value="¿Qué generación desea ordenar?" style="rhombus;whiteSpace=wrap;html=1;" parent="WIyWlLk6GJQsqaUBKTNV-1" vertex="1">
          <mxGeometry x="560" y="385" width="120" height="90" as="geometry" />
        </mxCell>
        <mxCell id="LwWZkDkLT1T3cjZPzuyB-33" value="Ordenación deseada" style="rounded=1;whiteSpace=wrap;html=1;" parent="WIyWlLk6GJQsqaUBKTNV-1" vertex="1">
          <mxGeometry x="750" y="260" width="70" height="50" as="geometry" />
        </mxCell>
        <mxCell id="LwWZkDkLT1T3cjZPzuyB-34" value="" style="endArrow=classic;html=1;rounded=0;entryX=0;entryY=0.5;entryDx=0;entryDy=0;" parent="WIyWlLk6GJQsqaUBKTNV-1" target="LwWZkDkLT1T3cjZPzuyB-35" edge="1">
          <mxGeometry width="50" height="50" relative="1" as="geometry">
            <mxPoint x="680" y="430" as="sourcePoint" />
            <mxPoint x="700" y="410" as="targetPoint" />
          </mxGeometry>
        </mxCell>
        <mxCell id="LwWZkDkLT1T3cjZPzuyB-35" value="¿Cómo desea ordenar?" style="rhombus;whiteSpace=wrap;html=1;" parent="WIyWlLk6GJQsqaUBKTNV-1" vertex="1">
          <mxGeometry x="700" y="390" width="100" height="80" as="geometry" />
        </mxCell>
        <mxCell id="LwWZkDkLT1T3cjZPzuyB-36" value="" style="endArrow=classic;html=1;rounded=0;exitX=1;exitY=0;exitDx=0;exitDy=0;" parent="WIyWlLk6GJQsqaUBKTNV-1" source="LwWZkDkLT1T3cjZPzuyB-35" edge="1">
          <mxGeometry width="50" height="50" relative="1" as="geometry">
            <mxPoint x="770" y="410" as="sourcePoint" />
            <mxPoint x="775" y="310" as="targetPoint" />
          </mxGeometry>
        </mxCell>
        <mxCell id="LwWZkDkLT1T3cjZPzuyB-37" value="a) De menor a mayor&lt;br&gt;b) De mayor a menor" style="text;html=1;strokeColor=none;fillColor=none;align=center;verticalAlign=middle;whiteSpace=wrap;rounded=0;" parent="WIyWlLk6GJQsqaUBKTNV-1" vertex="1">
          <mxGeometry x="640" y="330" width="140" height="40" as="geometry" />
        </mxCell>
        <mxCell id="LwWZkDkLT1T3cjZPzuyB-39" value="" style="endArrow=classic;startArrow=classic;html=1;rounded=0;exitX=1;exitY=1;exitDx=0;exitDy=0;" parent="WIyWlLk6GJQsqaUBKTNV-1" source="LwWZkDkLT1T3cjZPzuyB-24" edge="1">
          <mxGeometry width="50" height="50" relative="1" as="geometry">
            <mxPoint x="800" y="800" as="sourcePoint" />
            <mxPoint x="800" y="310" as="targetPoint" />
            <Array as="points">
              <mxPoint x="800" y="765" />
            </Array>
          </mxGeometry>
        </mxCell>
        <mxCell id="LwWZkDkLT1T3cjZPzuyB-40" value="" style="endArrow=classic;html=1;rounded=0;" parent="WIyWlLk6GJQsqaUBKTNV-1" edge="1">
          <mxGeometry width="50" height="50" relative="1" as="geometry">
            <mxPoint x="410" y="130" as="sourcePoint" />
            <mxPoint x="410" y="190" as="targetPoint" />
            <Array as="points">
              <mxPoint x="410" y="130" />
            </Array>
          </mxGeometry>
        </mxCell>
        <mxCell id="LwWZkDkLT1T3cjZPzuyB-41" value="Lectura y almacenamiento datos" style="rounded=1;whiteSpace=wrap;html=1;" parent="WIyWlLk6GJQsqaUBKTNV-1" vertex="1">
          <mxGeometry x="362" y="190" width="98" height="60" as="geometry" />
        </mxCell>
        <mxCell id="LwWZkDkLT1T3cjZPzuyB-44" value="" style="endArrow=none;dashed=1;html=1;dashPattern=1 3;strokeWidth=2;rounded=0;entryX=0;entryY=0.5;entryDx=0;entryDy=0;startArrow=classic;startFill=1;" parent="WIyWlLk6GJQsqaUBKTNV-1" target="LwWZkDkLT1T3cjZPzuyB-16" edge="1">
          <mxGeometry width="50" height="50" relative="1" as="geometry">
            <mxPoint x="461" y="220" as="sourcePoint" />
            <mxPoint x="511" y="170" as="targetPoint" />
          </mxGeometry>
        </mxCell>
        <mxCell id="LwWZkDkLT1T3cjZPzuyB-45" value="" style="endArrow=classic;html=1;rounded=0;entryX=0.5;entryY=0;entryDx=0;entryDy=0;" parent="WIyWlLk6GJQsqaUBKTNV-1" edge="1">
          <mxGeometry width="50" height="50" relative="1" as="geometry">
            <mxPoint x="410.5" y="250" as="sourcePoint" />
            <mxPoint x="410.5" y="290" as="targetPoint" />
          </mxGeometry>
        </mxCell>
        <mxCell id="zeBHEwBc_RIchn1hLwX_-0" value="" style="endArrow=classic;html=1;rounded=0;exitX=0;exitY=0;exitDx=0;exitDy=0;" edge="1" parent="WIyWlLk6GJQsqaUBKTNV-1" source="LwWZkDkLT1T3cjZPzuyB-1">
          <mxGeometry width="50" height="50" relative="1" as="geometry">
            <mxPoint x="288.5" y="400" as="sourcePoint" />
            <mxPoint x="310" y="310" as="targetPoint" />
            <Array as="points">
              <mxPoint x="310" y="405" />
            </Array>
          </mxGeometry>
        </mxCell>
        <mxCell id="zeBHEwBc_RIchn1hLwX_-4" value="Opción incorrecta" style="text;html=1;strokeColor=none;fillColor=none;align=center;verticalAlign=middle;whiteSpace=wrap;rounded=0;" vertex="1" parent="WIyWlLk6GJQsqaUBKTNV-1">
          <mxGeometry x="310" y="350" width="60" height="30" as="geometry" />
        </mxCell>
        <mxCell id="zeBHEwBc_RIchn1hLwX_-5" value="1)Media" style="rounded=1;whiteSpace=wrap;html=1;" vertex="1" parent="WIyWlLk6GJQsqaUBKTNV-1">
          <mxGeometry x="650" y="475" width="80" height="30" as="geometry" />
        </mxCell>
        <mxCell id="zeBHEwBc_RIchn1hLwX_-6" value="2)Mediana" style="rounded=1;whiteSpace=wrap;html=1;" vertex="1" parent="WIyWlLk6GJQsqaUBKTNV-1">
          <mxGeometry x="650" y="517.5" width="80" height="31.25" as="geometry" />
        </mxCell>
        <mxCell id="zeBHEwBc_RIchn1hLwX_-7" value="3)Varianza" style="rounded=1;whiteSpace=wrap;html=1;" vertex="1" parent="WIyWlLk6GJQsqaUBKTNV-1">
          <mxGeometry x="650" y="560" width="80" height="30" as="geometry" />
        </mxCell>
        <mxCell id="zeBHEwBc_RIchn1hLwX_-8" value="4)Maximo Minimo" style="rounded=1;whiteSpace=wrap;html=1;" vertex="1" parent="WIyWlLk6GJQsqaUBKTNV-1">
          <mxGeometry x="650" y="600" width="80" height="30" as="geometry" />
        </mxCell>
        <mxCell id="zeBHEwBc_RIchn1hLwX_-9" value="Opción incorrecta" style="rounded=1;whiteSpace=wrap;html=1;" vertex="1" parent="WIyWlLk6GJQsqaUBKTNV-1">
          <mxGeometry x="650" y="640" width="80" height="30" as="geometry" />
        </mxCell>
        <mxCell id="zeBHEwBc_RIchn1hLwX_-13" value="" style="endArrow=none;html=1;rounded=0;" edge="1" parent="WIyWlLk6GJQsqaUBKTNV-1">
          <mxGeometry width="50" height="50" relative="1" as="geometry">
            <mxPoint x="600" y="660" as="sourcePoint" />
            <mxPoint x="600" y="490" as="targetPoint" />
            <Array as="points">
              <mxPoint x="600" y="538.75" />
            </Array>
          </mxGeometry>
        </mxCell>
        <mxCell id="zeBHEwBc_RIchn1hLwX_-14" value="" style="endArrow=classic;html=1;rounded=0;entryX=0;entryY=0.5;entryDx=0;entryDy=0;" edge="1" parent="WIyWlLk6GJQsqaUBKTNV-1">
          <mxGeometry width="50" height="50" relative="1" as="geometry">
            <mxPoint x="599" y="489.71" as="sourcePoint" />
            <mxPoint x="649" y="489.71" as="targetPoint" />
          </mxGeometry>
        </mxCell>
        <mxCell id="zeBHEwBc_RIchn1hLwX_-15" value="" style="endArrow=classic;html=1;rounded=0;entryX=0;entryY=0.75;entryDx=0;entryDy=0;" edge="1" parent="WIyWlLk6GJQsqaUBKTNV-1">
          <mxGeometry width="50" height="50" relative="1" as="geometry">
            <mxPoint x="600" y="532.66" as="sourcePoint" />
            <mxPoint x="650" y="533.5975" as="targetPoint" />
          </mxGeometry>
        </mxCell>
        <mxCell id="zeBHEwBc_RIchn1hLwX_-16" value="" style="endArrow=classic;html=1;rounded=0;entryX=0;entryY=0.75;entryDx=0;entryDy=0;" edge="1" parent="WIyWlLk6GJQsqaUBKTNV-1">
          <mxGeometry width="50" height="50" relative="1" as="geometry">
            <mxPoint x="600" y="575" as="sourcePoint" />
            <mxPoint x="649" y="574.75" as="targetPoint" />
          </mxGeometry>
        </mxCell>
        <mxCell id="zeBHEwBc_RIchn1hLwX_-18" value="" style="endArrow=classic;html=1;rounded=0;" edge="1" parent="WIyWlLk6GJQsqaUBKTNV-1">
          <mxGeometry width="50" height="50" relative="1" as="geometry">
            <mxPoint x="600" y="620" as="sourcePoint" />
            <mxPoint x="650" y="620" as="targetPoint" />
          </mxGeometry>
        </mxCell>
        <mxCell id="zeBHEwBc_RIchn1hLwX_-19" value="" style="endArrow=classic;html=1;rounded=0;entryX=0;entryY=1;entryDx=0;entryDy=0;" edge="1" parent="WIyWlLk6GJQsqaUBKTNV-1">
          <mxGeometry width="50" height="50" relative="1" as="geometry">
            <mxPoint x="600" y="660" as="sourcePoint" />
            <mxPoint x="650" y="660" as="targetPoint" />
          </mxGeometry>
        </mxCell>
        <mxCell id="zeBHEwBc_RIchn1hLwX_-20" value="" style="endArrow=classic;html=1;rounded=0;entryX=0.5;entryY=1;entryDx=0;entryDy=0;exitX=0.38;exitY=1.047;exitDx=0;exitDy=0;exitPerimeter=0;" edge="1" parent="WIyWlLk6GJQsqaUBKTNV-1" source="zeBHEwBc_RIchn1hLwX_-9" target="LwWZkDkLT1T3cjZPzuyB-17">
          <mxGeometry width="50" height="50" relative="1" as="geometry">
            <mxPoint x="681" y="680" as="sourcePoint" />
            <mxPoint x="550" y="600" as="targetPoint" />
            <Array as="points">
              <mxPoint x="680" y="710" />
              <mxPoint x="530" y="710" />
              <mxPoint x="530" y="630" />
            </Array>
          </mxGeometry>
        </mxCell>
        <mxCell id="zeBHEwBc_RIchn1hLwX_-21" value="" style="endArrow=classic;html=1;rounded=0;" edge="1" parent="WIyWlLk6GJQsqaUBKTNV-1">
          <mxGeometry width="50" height="50" relative="1" as="geometry">
            <mxPoint x="730" y="500" as="sourcePoint" />
            <mxPoint x="770" y="500" as="targetPoint" />
          </mxGeometry>
        </mxCell>
        <mxCell id="zeBHEwBc_RIchn1hLwX_-22" value="" style="endArrow=none;html=1;rounded=0;exitX=1;exitY=0.5;exitDx=0;exitDy=0;startArrow=classic;startFill=1;" edge="1" parent="WIyWlLk6GJQsqaUBKTNV-1" source="LwWZkDkLT1T3cjZPzuyB-24">
          <mxGeometry width="50" height="50" relative="1" as="geometry">
            <mxPoint x="540" y="730" as="sourcePoint" />
            <mxPoint x="770" y="500" as="targetPoint" />
            <Array as="points">
              <mxPoint x="580" y="740" />
              <mxPoint x="770" y="740" />
            </Array>
          </mxGeometry>
        </mxCell>
        <mxCell id="zeBHEwBc_RIchn1hLwX_-23" value="" style="endArrow=classic;html=1;rounded=0;" edge="1" parent="WIyWlLk6GJQsqaUBKTNV-1">
          <mxGeometry width="50" height="50" relative="1" as="geometry">
            <mxPoint x="730" y="545" as="sourcePoint" />
            <mxPoint x="770" y="545" as="targetPoint" />
          </mxGeometry>
        </mxCell>
        <mxCell id="zeBHEwBc_RIchn1hLwX_-24" value="" style="endArrow=classic;html=1;rounded=0;" edge="1" parent="WIyWlLk6GJQsqaUBKTNV-1">
          <mxGeometry width="50" height="50" relative="1" as="geometry">
            <mxPoint x="730" y="585" as="sourcePoint" />
            <mxPoint x="770" y="585" as="targetPoint" />
          </mxGeometry>
        </mxCell>
        <mxCell id="zeBHEwBc_RIchn1hLwX_-25" value="" style="endArrow=classic;html=1;rounded=0;" edge="1" parent="WIyWlLk6GJQsqaUBKTNV-1">
          <mxGeometry width="50" height="50" relative="1" as="geometry">
            <mxPoint x="730" y="620" as="sourcePoint" />
            <mxPoint x="770" y="620" as="targetPoint" />
          </mxGeometry>
        </mxCell>
      </root>
    </mxGraphModel>
  </diagram>
</mxfile>
